<svg id="etm4sUhqzNL1" xmlns="http://www.w3.org/2000/svg" xmlns:xlink="http://www.w3.org/1999/xlink" viewBox="0 0 400 400" shape-rendering="geometricPrecision" text-rendering="geometricPrecision"><ellipse id="etm4sUhqzNL2" rx="6.648835" ry="8.889122" transform="matrix(1 0 0 1 175.0948 151.349473)" fill="rgb(55,54,54)" stroke="none" stroke-width="0"/><ellipse id="etm4sUhqzNL3" rx="6.648835" ry="8.889122" transform="matrix(1 0 0 1 224.172548 151.349473)" fill="rgb(55,54,54)" stroke="none" stroke-width="0"/><ellipse id="etm4sUhqzNL4" rx="23.566379" ry="18.224666" transform="matrix(1.307854 0 0 2.204032 200 169.289069)" fill="rgb(116,140,77)" stroke="none" stroke-width="0"/><polygon id="etm4sUhqzNL5" points="0,-56.395043 53.634873,-17.427027 33.148175,45.624548 -33.148175,45.624548 -53.634873,-17.427027 0,-56.395043" transform="matrix(0.090077 0 0 0.360652 181.743635 229.795801)" fill="rgb(210,219,237)" stroke="none" stroke-width="0"/><polygon id="etm4sUhqzNL6" points="0,-56.395043 53.634873,-17.427027 33.148175,45.624548 -33.148175,45.624548 -53.634873,-17.427027 0,-56.395043" transform="matrix(0.090077 0 0 0.360652 217.523713 229.795801)" fill="rgb(210,219,237)" stroke="none" stroke-width="0"/><ellipse id="etm4sUhqzNL7" rx="24.194816" ry="13.511391" transform="matrix(1.164131 0 0 1.37088 199.371564 233.464258)" fill="rgb(116,140,77)" stroke="none" stroke-width="0"/></svg>